<svg width="800" height="520" viewBox="0 0 800 520" fill="none" xmlns="http://www.w3.org/2000/svg">
  <rect width="800" height="520" rx="36" fill="#F7FAFF"/>
  <rect x="24" y="24" width="752" height="472" rx="30" stroke="#D7E5FB" stroke-width="2"/>
  <circle cx="170" cy="118" r="94" fill="url(#paint0_radial)"/>
  <circle cx="674" cy="410" r="96" fill="url(#paint1_radial)"/>
  <g filter="url(#filter0_d)">
    <rect x="112" y="118" width="332" height="246" rx="30" fill="white"/>
    <rect x="112.75" y="118.75" width="330.5" height="244.5" rx="29.25" stroke="#D7E5FB" stroke-width="1.5"/>
  </g>
  <g filter="url(#filter1_d)">
    <rect x="468" y="94" width="220" height="120" rx="28" fill="#EDF5FF"/>
    <rect x="468.75" y="94.75" width="218.5" height="118.5" rx="27.25" stroke="#D7E5FB" stroke-width="1.5"/>
  </g>
  <g filter="url(#filter2_d)">
    <rect x="468" y="238" width="220" height="160" rx="28" fill="#FFF8E8"/>
    <rect x="468.75" y="238.75" width="218.5" height="158.5" rx="27.25" stroke="#F0D8A0" stroke-width="1.5"/>
  </g>
  <rect x="140" y="148" width="86" height="32" rx="14" fill="#EAF2FF"/>
  <text x="161" y="169" fill="#4F7FE6" font-size="18" font-family="Arial, sans-serif" font-weight="700">INPUT</text>
  <rect x="140" y="204" width="274" height="20" rx="10" fill="#BDD3FF"/>
  <rect x="140" y="238" width="218" height="16" rx="8" fill="#E2ECFC"/>
  <rect x="140" y="268" width="188" height="16" rx="8" fill="#E2ECFC"/>
  <rect x="140" y="298" width="236" height="16" rx="8" fill="#E2ECFC"/>
  <path d="M140 332H414" stroke="#D7E5FB" stroke-width="2"/>
  <text x="140" y="350" fill="#607086" font-size="18" font-family="Arial, sans-serif">repeatable / structured / descriptive</text>
  <text x="504" y="136" fill="#4F7FE6" font-size="18" font-family="Arial, sans-serif" font-weight="700">ACTIONS</text>
  <rect x="504" y="152" width="148" height="14" rx="7" fill="#BDD3FF"/>
  <rect x="504" y="176" width="116" height="14" rx="7" fill="#D7E5FB"/>
  <circle cx="640" cy="170" r="18" fill="white" stroke="#9FC0FF" stroke-width="3"/>
  <text x="504" y="280" fill="#B7791F" font-size="18" font-family="Arial, sans-serif" font-weight="700">OUTPUTS</text>
  <rect x="504" y="302" width="150" height="16" rx="8" fill="#F3D69A"/>
  <rect x="504" y="330" width="122" height="16" rx="8" fill="#F8E5BC"/>
  <rect x="504" y="358" width="134" height="16" rx="8" fill="#F8E5BC"/>
  <path d="M444 192C462 192 468 180 468 156" stroke="#9FC0FF" stroke-width="4" stroke-linecap="round"/>
  <path d="M444 302C462 302 468 312 468 334" stroke="#D6B25B" stroke-width="4" stroke-linecap="round"/>
  <defs>
    <filter id="filter0_d" x="76" y="96" width="404" height="318" filterUnits="userSpaceOnUse" color-interpolation-filters="sRGB">
      <feFlood flood-opacity="0" result="BackgroundImageFix"/>
      <feColorMatrix in="SourceAlpha" type="matrix" values="0 0 0 0 0 0 0 0 0 0 0 0 0 0 0 0 0 0 127 0" result="hardAlpha"/>
      <feOffset dy="16"/>
      <feGaussianBlur stdDeviation="18"/>
      <feColorMatrix type="matrix" values="0 0 0 0 0.592157 0 0 0 0 0.686275 0 0 0 0 0.823529 0 0 0 0.28 0"/>
      <feBlend mode="normal" in2="BackgroundImageFix" result="effect1_dropShadow_0_4"/>
      <feBlend mode="normal" in="SourceGraphic" in2="effect1_dropShadow_0_4" result="shape"/>
    </filter>
    <filter id="filter1_d" x="442" y="80" width="272" height="172" filterUnits="userSpaceOnUse" color-interpolation-filters="sRGB">
      <feFlood flood-opacity="0" result="BackgroundImageFix"/>
      <feColorMatrix in="SourceAlpha" type="matrix" values="0 0 0 0 0 0 0 0 0 0 0 0 0 0 0 0 0 0 127 0" result="hardAlpha"/>
      <feOffset dy="14"/>
      <feGaussianBlur stdDeviation="13"/>
      <feColorMatrix type="matrix" values="0 0 0 0 0.592157 0 0 0 0 0.686275 0 0 0 0 0.823529 0 0 0 0.24 0"/>
      <feBlend mode="normal" in2="BackgroundImageFix" result="effect1_dropShadow_0_4"/>
      <feBlend mode="normal" in="SourceGraphic" in2="effect1_dropShadow_0_4" result="shape"/>
    </filter>
    <filter id="filter2_d" x="442" y="224" width="272" height="212" filterUnits="userSpaceOnUse" color-interpolation-filters="sRGB">
      <feFlood flood-opacity="0" result="BackgroundImageFix"/>
      <feColorMatrix in="SourceAlpha" type="matrix" values="0 0 0 0 0 0 0 0 0 0 0 0 0 0 0 0 0 0 127 0" result="hardAlpha"/>
      <feOffset dy="14"/>
      <feGaussianBlur stdDeviation="13"/>
      <feColorMatrix type="matrix" values="0 0 0 0 0.729412 0 0 0 0 0.568627 0 0 0 0 0.25098 0 0 0 0.2 0"/>
      <feBlend mode="normal" in2="BackgroundImageFix" result="effect1_dropShadow_0_4"/>
      <feBlend mode="normal" in="SourceGraphic" in2="effect1_dropShadow_0_4" result="shape"/>
    </filter>
    <radialGradient id="paint0_radial" cx="0" cy="0" r="1" gradientUnits="userSpaceOnUse" gradientTransform="translate(170 118) rotate(90) scale(94)">
      <stop stop-color="#DCEAFF"/>
      <stop offset="1" stop-color="#DCEAFF" stop-opacity="0"/>
    </radialGradient>
    <radialGradient id="paint1_radial" cx="0" cy="0" r="1" gradientUnits="userSpaceOnUse" gradientTransform="translate(674 410) rotate(90) scale(96)">
      <stop stop-color="#E7F0FF"/>
      <stop offset="1" stop-color="#E7F0FF" stop-opacity="0"/>
    </radialGradient>
  </defs>
</svg>
