<svg width="800" height="520" viewBox="0 0 800 520" fill="none" xmlns="http://www.w3.org/2000/svg">
  <rect width="800" height="520" rx="36" fill="#F7FAFF"/>
  <rect x="24" y="24" width="752" height="472" rx="30" stroke="#D7E5FB" stroke-width="2"/>
  <circle cx="236" cy="172" r="94" fill="white" stroke="#D7E5FB" stroke-width="2"/>
  <circle cx="560" cy="172" r="94" fill="white" stroke="#D7E5FB" stroke-width="2"/>
  <circle cx="398" cy="354" r="102" fill="#FFF8E8" stroke="#F0D8A0" stroke-width="2"/>
  <path d="M306 176C340 140 452 136 490 176" stroke="#9FC0FF" stroke-width="6" stroke-linecap="round"/>
  <path d="M540 246C532 296 476 338 434 350" stroke="#D6B25B" stroke-width="6" stroke-linecap="round"/>
  <path d="M360 350C314 338 264 304 256 246" stroke="#9FC0FF" stroke-width="6" stroke-linecap="round"/>
  <path d="M482 154L502 176L480 192" stroke="#9FC0FF" stroke-width="6" stroke-linecap="round" stroke-linejoin="round"/>
  <path d="M428 332L426 360L398 352" stroke="#D6B25B" stroke-width="6" stroke-linecap="round" stroke-linejoin="round"/>
  <path d="M270 256L252 240L278 228" stroke="#9FC0FF" stroke-width="6" stroke-linecap="round" stroke-linejoin="round"/>
  <text x="192" y="154" fill="#4F7FE6" font-size="20" font-family="Arial, sans-serif" font-weight="700">PERSONAL</text>
  <text x="534" y="154" fill="#4F7FE6" font-size="20" font-family="Arial, sans-serif" font-weight="700">TEAM</text>
  <text x="338" y="336" fill="#B7791F" font-size="20" font-family="Arial, sans-serif" font-weight="700">WORKFLOW</text>
  <rect x="176" y="194" width="120" height="14" rx="7" fill="#BDD3FF"/>
  <rect x="500" y="194" width="120" height="14" rx="7" fill="#BDD3FF"/>
  <rect x="330" y="374" width="136" height="14" rx="7" fill="#E9D2A0"/>
  <circle cx="126" cy="110" r="80" fill="url(#paint0_radial)"/>
  <circle cx="678" cy="402" r="100" fill="url(#paint1_radial)"/>
  <defs>
    <radialGradient id="paint0_radial" cx="0" cy="0" r="1" gradientUnits="userSpaceOnUse" gradientTransform="translate(126 110) rotate(90) scale(80)">
      <stop stop-color="#DCEAFF"/>
      <stop offset="1" stop-color="#DCEAFF" stop-opacity="0"/>
    </radialGradient>
    <radialGradient id="paint1_radial" cx="0" cy="0" r="1" gradientUnits="userSpaceOnUse" gradientTransform="translate(678 402) rotate(90) scale(100)">
      <stop stop-color="#EAF2FF"/>
      <stop offset="1" stop-color="#EAF2FF" stop-opacity="0"/>
    </radialGradient>
  </defs>
</svg>
