<svg width="800" height="520" viewBox="0 0 800 520" fill="none" xmlns="http://www.w3.org/2000/svg">
  <rect width="800" height="520" rx="36" fill="#F7FAFF"/>
  <rect x="24" y="24" width="752" height="472" rx="30" stroke="#D7E5FB" stroke-width="2"/>
  <g filter="url(#filter0_d)">
    <rect x="128" y="80" width="544" height="360" rx="34" fill="white"/>
    <rect x="128.75" y="80.75" width="542.5" height="358.5" rx="33.25" stroke="#D7E5FB" stroke-width="1.5"/>
  </g>
  <rect x="166" y="120" width="116" height="46" rx="18" fill="#EAF2FF"/>
  <text x="198" y="149" fill="#4F7FE6" font-size="20" font-family="Arial, sans-serif" font-weight="700">ROLE</text>
  <rect x="298" y="120" width="116" height="46" rx="18" fill="#F6FAFF" stroke="#D7E5FB"/>
  <text x="332" y="149" fill="#6A7D9A" font-size="20" font-family="Arial, sans-serif" font-weight="700">TASK</text>
  <rect x="430" y="120" width="136" height="46" rx="18" fill="#EDF5FF"/>
  <text x="456" y="149" fill="#4F7FE6" font-size="20" font-family="Arial, sans-serif" font-weight="700">CONTEXT</text>
  <rect x="582" y="120" width="56" height="46" rx="18" fill="#FFF5DD"/>
  <text x="596" y="149" fill="#B7791F" font-size="20" font-family="Arial, sans-serif" font-weight="700">OK</text>
  <rect x="166" y="198" width="472" height="102" rx="24" fill="#F8FBFF" stroke="#D7E5FB" stroke-width="1.5"/>
  <rect x="190" y="224" width="188" height="16" rx="8" fill="#BDD3FF"/>
  <rect x="190" y="252" width="316" height="14" rx="7" fill="#E2ECFC"/>
  <rect x="190" y="278" width="268" height="14" rx="7" fill="#E2ECFC"/>
  <rect x="166" y="324" width="146" height="76" rx="20" fill="#F7FAFF" stroke="#D7E5FB" stroke-width="1.5"/>
  <rect x="328" y="324" width="146" height="76" rx="20" fill="#F7FAFF" stroke="#D7E5FB" stroke-width="1.5"/>
  <rect x="490" y="324" width="148" height="76" rx="20" fill="#FFF8E8" stroke="#F0D8A0" stroke-width="1.5"/>
  <text x="196" y="352" fill="#6A7D9A" font-size="18" font-family="Arial, sans-serif" font-weight="700">CONSTRAINTS</text>
  <text x="365" y="352" fill="#6A7D9A" font-size="18" font-family="Arial, sans-serif" font-weight="700">FORMAT</text>
  <text x="531" y="352" fill="#B7791F" font-size="18" font-family="Arial, sans-serif" font-weight="700">DELIVERABLE</text>
  <path d="M312 362H328" stroke="#BFD4FD" stroke-width="3" stroke-linecap="round"/>
  <path d="M474 362H490" stroke="#BFD4FD" stroke-width="3" stroke-linecap="round"/>
  <circle cx="688" cy="150" r="52" fill="url(#paint0_radial)"/>
  <circle cx="116" cy="398" r="84" fill="url(#paint1_radial)"/>
  <defs>
    <filter id="filter0_d" x="92" y="58" width="616" height="432" filterUnits="userSpaceOnUse" color-interpolation-filters="sRGB">
      <feFlood flood-opacity="0" result="BackgroundImageFix"/>
      <feColorMatrix in="SourceAlpha" type="matrix" values="0 0 0 0 0 0 0 0 0 0 0 0 0 0 0 0 0 0 127 0" result="hardAlpha"/>
      <feOffset dy="16"/>
      <feGaussianBlur stdDeviation="18"/>
      <feColorMatrix type="matrix" values="0 0 0 0 0.592157 0 0 0 0 0.686275 0 0 0 0 0.823529 0 0 0 0.28 0"/>
      <feBlend mode="normal" in2="BackgroundImageFix" result="effect1_dropShadow_0_3"/>
      <feBlend mode="normal" in="SourceGraphic" in2="effect1_dropShadow_0_3" result="shape"/>
    </filter>
    <radialGradient id="paint0_radial" cx="0" cy="0" r="1" gradientUnits="userSpaceOnUse" gradientTransform="translate(688 150) rotate(90) scale(52)">
      <stop stop-color="#D8E7FF"/>
      <stop offset="1" stop-color="#D8E7FF" stop-opacity="0"/>
    </radialGradient>
    <radialGradient id="paint1_radial" cx="0" cy="0" r="1" gradientUnits="userSpaceOnUse" gradientTransform="translate(116 398) rotate(90) scale(84)">
      <stop stop-color="#EAF2FF"/>
      <stop offset="1" stop-color="#EAF2FF" stop-opacity="0"/>
    </radialGradient>
  </defs>
</svg>
